<?xml version="1.0" encoding="UTF-8" standalone="no"?>
<!-- Created with Inkscape (http://www.inkscape.org/) -->

<svg
   xmlns:dc="http://purl.org/dc/elements/1.1/"
   xmlns:cc="http://creativecommons.org/ns#"
   xmlns:rdf="http://www.w3.org/1999/02/22-rdf-syntax-ns#"
   xmlns:svg="http://www.w3.org/2000/svg"
   xmlns="http://www.w3.org/2000/svg"
   xmlns:sodipodi="http://sodipodi.sourceforge.net/DTD/sodipodi-0.dtd"
   xmlns:inkscape="http://www.inkscape.org/namespaces/inkscape"
   width="83.62413mm"
   height="10.202834mm"
   viewBox="0 0 83.62413 10.202834"
   version="1.1"
   id="svg499"
   inkscape:version="0.92.2 (5c3e80d, 2017-08-06)"
   sodipodi:docname="logo.svg"
   inkscape:export-filename="C:\Users\sekse\bitmap.png"
   inkscape:export-xdpi="96"
   inkscape:export-ydpi="96">
  <defs
     id="defs493" />
  <sodipodi:namedview
     id="base"
     pagecolor="#ffffff"
     bordercolor="#666666"
     borderopacity="1.0"
     inkscape:pageopacity="0.0"
     inkscape:pageshadow="2"
     inkscape:zoom="0.35"
     inkscape:cx="-180.78382"
     inkscape:cy="-55.276295"
     inkscape:document-units="mm"
     inkscape:current-layer="layer1"
     showgrid="false"
     inkscape:window-width="1366"
     inkscape:window-height="715"
     inkscape:window-x="-8"
     inkscape:window-y="22"
     inkscape:window-maximized="1" />
  <metadata
     id="metadata496">
    <rdf:RDF>
      <cc:Work
         rdf:about="">
        <dc:format>image/svg+xml</dc:format>
        <dc:type
           rdf:resource="http://purl.org/dc/dcmitype/StillImage" />
        <dc:title></dc:title>
      </cc:Work>
    </rdf:RDF>
  </metadata>
  <g
     inkscape:label="Layer 1"
     inkscape:groupmode="layer"
     id="layer1"
     transform="translate(-64.021269,-112.73787)">
    <g
       id="Layer1002"
       transform="matrix(0.26458333,0,0,0.26458333,28.522653,-7.1447853)">
      <path
         d="m 140.6091,453.0998 h 8.6911 c 2.9465,0 6.6928,2.6522 6.6928,6.1427 v 18.2355 c 0,3.455 -3.676,6.5515 -6.6928,6.5515 h -8.6911 c -2.9514,0 -6.4411,-3.0519 -6.4411,-6.5515 v -18.2355 c 0,-3.4951 3.4868,-6.1427 6.4411,-6.1427 z m 42.4042,15.6571 c -0.9011,-0.1016 -1.6033,-0.912 -1.6033,-1.8968 0,-0.9849 0.7022,-1.796 1.6033,-1.8975 v -0.0107 h 0.1914 14.4838 4e-4 c 0.9905,0 1.794,0.8546 1.794,1.9082 0,1.0535 -0.8035,1.9074 -1.794,1.9074 h -4e-4 -4.8083 v 15.262 h -5.1268 v -15.262 h -4.5275 -0.0212 -0.1914 z m -33.9106,-11.4501 h -8.0444 c -0.8839,0 -1.3316,0.3802 -1.3316,1.1306 v 20.2541 c 0,0.7631 0.4466,1.1433 1.3316,1.1433 h 8.0444 c 0.885,0 1.3313,-0.3791 1.3313,-1.1433 v -20.2541 c 0,-0.7516 -0.4463,-1.1306 -1.3313,-1.1306 z m 23.4044,11.4607 h -5.828 c -0.3188,0 -0.5453,0.0611 -0.6871,0.1772 -0.1415,0.1225 -0.205,0.3179 -0.205,0.5932 v 14.4916 c -1.766,0 -5.1275,-0.2252 -5.1275,-3.0301 v -11.0539 c 0,-3.0579 3.1525,-4.9936 5.7252,-4.9936 h 6.6142 c 2.5576,0 5.5274,1.9532 5.5274,4.9936 v 11.0115 c -0.4947,2.8561 -3.0854,3.0725 -5.1479,3.0725 v -14.4916 c 0,-0.1772 -0.0287,-0.3241 -0.0855,-0.4402 -0.0495,-0.1103 -0.1486,-0.1958 -0.2757,-0.2508 -0.135,-0.0549 -0.3048,-0.0794 -0.5101,-0.0794 z m 59.2812,7.2214 h -1.6246 v 8.0406 H 225.023 V 459.612 c 0.3137,-1.4704 1.4622,-2.5049 3.0415,-2.74 h 2.0992 v 15.2951 h 0.6236 l 6.5359,-7.2152 h 5.5626 l -6.7653,7.4886 8.6954,11.589 h -7.1383 z m 14.1671,3.2149 v -3.1843 l 0.007,-3.7947 4.4127,-0.021 h 8.313 v -2.6659 c 0,-0.2753 -0.0639,-0.4711 -0.205,-0.5932 -0.1339,-0.1157 -0.3691,-0.1779 -0.6868,-0.1772 l -7.5752,0.0294 c -1.6056,-0.1511 -2.9795,-1.0936 -3.2132,-2.7037 v -1.099 l 12.3674,-0.0423 c 1.5366,0 2.6585,0.3023 3.3636,0.9111 0.7037,0.6077 1.0555,1.5781 1.0555,2.9045 v 10.4363 c 0,3.0476 -1.8561,4.8257 -4.4191,4.8257 h -9.0002 c -2.5656,0 -4.4192,-1.7765 -4.4192,-4.8257 z m 12.7322,0.2397 v -2.5255 c 0.0312,-0.6493 -0.284,-0.8947 -0.8078,-0.8985 h -5.9335 c -0.3184,0 -0.5453,0.061 -0.6796,0.1832 -0.1414,0.1164 -0.2122,0.3058 -0.2122,0.5688 v 2.672 c 0,0.2752 0.0708,0.471 0.2122,0.5932 0.1343,0.116 0.3612,0.1771 0.6796,0.1771 h 5.8495 c 0.3185,0 0.5525,-0.0611 0.6868,-0.1771 0.1415,-0.1222 0.205,-0.318 0.205,-0.5932 z m 34.0456,4.586 h -1.7043 v -6.2873 h -7.5914 v 6.2873 h -1.9473 c -1.9035,-0.1214 -3.1737,-1.9105 -3.1935,-3.2149 v -24.4644 c 0.1365,-1.53 0.8664,-3.1633 2.6902,-3.2332 h 2.4506 v 20.8095 h 7.5914 V 453.117 h 2.367 c 1.4494,0.218 2.4708,0.9948 2.7598,2.7278 v 24.9634 c -0.2434,2.459 -1.7524,3.1209 -3.4225,3.2213 z m 34.4182,0 v 4.7707 c -0.4897,2.0949 -1.8116,2.8969 -3.6731,2.8603 h -1.468 v -21.7989 c 0,-3.0488 1.8529,-4.9097 4.4187,-4.9097 h 9.1277 c 2.591,0 4.7523,1.8326 4.7523,4.9097 v 9.2582 c 0,3.0755 -1.9014,4.9097 -4.4891,4.9097 z m 7.1595,-15.262 h -6.2885 c -0.3041,0 -0.5267,0.0577 -0.6653,0.1772 -0.1375,0.1187 -0.2057,0.3183 -0.2057,0.5932 v 9.53 c -0.032,0.5978 0.3874,1.1761 1.0993,1.1459 h 6.0602 c 0.3188,0 0.545,-0.0611 0.6868,-0.1771 0.1346,-0.1222 0.2054,-0.318 0.2054,-0.5932 v -9.9056 c 0,-0.2753 -0.0708,-0.4707 -0.2054,-0.5932 -0.1418,-0.1161 -0.368,-0.1772 -0.6868,-0.1772 z m 10.0413,10.2679 v -9.0051 c 0,-3.058 2.5591,-5.0784 5.1318,-5.0784 h 7.7771 c 2.5694,0 5.3899,2.0174 5.3899,5.0784 v 9.0051 c 0,3.0611 -2.8219,4.9941 -5.3899,4.9941 h -7.7771 c -2.5712,0 -5.1318,-1.9361 -5.1318,-4.9941 z m 12.3007,-10.2679 h -6.2814 c -0.3188,0 -0.545,0.0611 -0.6868,0.1772 -0.1414,0.1225 -0.2053,0.3179 -0.2053,0.5932 v 9.9056 c 0,0.2752 0.0639,0.471 0.2053,0.5932 0.1418,0.116 0.368,0.1771 0.6868,0.1771 h 6.2814 c 0.2125,0 0.3752,-0.0244 0.503,-0.0794 0.1202,-0.0549 0.2121,-0.1405 0.2757,-0.2508 0.0643,-0.116 0.0926,-0.2626 0.0926,-0.4401 v -9.9056 c 0,-0.1772 -0.0283,-0.3241 -0.0926,-0.4402 -0.0636,-0.1103 -0.1555,-0.1958 -0.2757,-0.2508 -0.1278,-0.0549 -0.2905,-0.0794 -0.503,-0.0794 z m 88.4693,15.262 v -6.879 h -0.6233 l -6.5363,6.879 h -6.4511 l 6.7843,-6.879 h -1.4942 c -1.5366,0 -2.6575,-0.2981 -3.364,-0.905 -0.7019,-0.6028 -1.0548,-1.5651 -1.0548,-2.892 v -3.5339 c 0,-3.0485 1.855,-4.8677 4.4188,-4.8677 h 9.0217 c 2.5763,0 4.4044,1.8116 4.4044,4.8677 v 11.6886 c -0.3349,1.6006 -1.2037,2.3804 -2.4894,2.5213 z m -0.8922,-15.262 h -5.8495 c -0.304,0 -0.5309,0.0615 -0.6652,0.1772 -0.1415,0.1225 -0.2057,0.3183 -0.2057,0.5932 v 3.0449 c 0,0.2749 0.0646,0.4711 0.2057,0.5932 0.1343,0.1157 0.3608,0.1775 0.6652,0.1775 h 5.8807 c 0.6143,0.008 0.88,-0.3187 0.861,-0.9149 v -2.9007 c 0,-0.2753 -0.0679,-0.4745 -0.2054,-0.5932 -0.1386,-0.1195 -0.3683,-0.1772 -0.6868,-0.1772 z"
         style="fill:#ffffff;fill-rule:evenodd"
         id="path457"
         inkscape:connector-curvature="0" />
      <path
         d="m 402.6691,484.0295 h -1.7042 v -4.7803 h -7.5914 v 4.7803 h -1.9473 c -1.9035,-0.1214 -3.1737,-1.9105 -3.1935,-3.2149 v -12.6292 c 0.1364,-1.5303 0.8663,-3.1637 2.6901,-3.2335 h 2.4507 v 10.4816 h 7.5914 v -10.4816 h 2.367 c 1.4493,0.2179 2.4707,0.9947 2.7597,2.7277 v 13.1286 c -0.2434,2.459 -1.7523,3.1209 -3.4225,3.2213 z"
         style="fill:#ffffff;fill-rule:evenodd"
         id="path459"
         inkscape:connector-curvature="0" />
      <path
         d="m 379.3316,484.0295 v 4.7707 c 0.4897,2.0949 1.8116,2.8969 3.6731,2.8603 h 1.468 v -21.7989 c 0,-3.0488 -1.8529,-4.9097 -4.4187,-4.9097 h -9.1277 c -2.591,0 -4.7523,1.8326 -4.7523,4.9097 v 9.2582 c 0,3.0755 1.9014,4.9097 4.4892,4.9097 z m -7.1595,-15.262 h 6.2885 c 0.3041,0 0.5267,0.0577 0.6653,0.1772 0.1375,0.1187 0.2057,0.3183 0.2057,0.5932 v 9.53 c 0.032,0.5978 -0.3874,1.1761 -1.0993,1.1459 h -6.0602 c -0.3188,0 -0.545,-0.0611 -0.6868,-0.1771 -0.1346,-0.1222 -0.2054,-0.318 -0.2054,-0.5932 v -9.9056 c 0,-0.2753 0.0708,-0.4707 0.2054,-0.5932 0.1418,-0.1161 0.368,-0.1772 0.6868,-0.1772 z"
         style="fill:#ffffff;fill-rule:evenodd"
         id="path461"
         inkscape:connector-curvature="0" />
      <path
         d="m 300.6549,479.2038 v -3.1843 l 0.006,-3.7947 4.4127,-0.021 h 8.313 v -2.6659 c 0,-0.2753 -0.0639,-0.4711 -0.205,-0.5932 -0.1339,-0.1157 -0.369,-0.1779 -0.6868,-0.1772 l -7.5752,0.0294 c -1.6055,-0.1511 -2.9795,-1.0936 -3.2132,-2.7037 v -1.099 l 12.3674,-0.0423 c 1.5366,0 2.6585,0.3023 3.3636,0.9111 0.7037,0.6077 1.0555,1.5781 1.0555,2.9045 v 10.4363 c 0,3.0476 -1.8561,4.8257 -4.4191,4.8257 h -9.0002 c -2.5655,0 -4.4191,-1.7765 -4.4191,-4.8257 z m 12.7321,0.2397 v -2.5255 c 0.0313,-0.6493 -0.2839,-0.8947 -0.8077,-0.8985 h -5.9335 c -0.3185,0 -0.5454,0.061 -0.6796,0.1832 -0.1415,0.1164 -0.2122,0.3058 -0.2122,0.5688 v 2.672 c 0,0.2752 0.0707,0.471 0.2122,0.5932 0.1342,0.116 0.3611,0.1771 0.6796,0.1771 h 5.8494 c 0.3185,0 0.5526,-0.0611 0.6868,-0.1771 0.1415,-0.1222 0.205,-0.318 0.205,-0.5932 z"
         style="fill:#ffffff;fill-rule:evenodd"
         id="path463"
         inkscape:connector-curvature="0" />
      <path
         d="m 410.0161,479.2038 v -3.1843 l 0.006,-3.7947 4.4127,-0.021 h 8.313 v -2.6659 c 0,-0.2753 -0.0639,-0.4711 -0.205,-0.5932 -0.1339,-0.1157 -0.369,-0.1779 -0.6868,-0.1772 l -7.5752,0.0294 c -1.6055,-0.1511 -2.9795,-1.0936 -3.2132,-2.7037 v -1.099 l 12.3674,-0.0423 c 1.5366,0 2.6585,0.3023 3.3636,0.9111 0.7037,0.6077 1.0555,1.5781 1.0555,2.9045 v 10.4363 c 0,3.0476 -1.8561,4.8257 -4.4191,4.8257 h -9.0002 c -2.5655,0 -4.4191,-1.7765 -4.4191,-4.8257 z m 12.7321,0.2397 v -2.5255 c 0.0313,-0.6493 -0.284,-0.8947 -0.8078,-0.8985 h -5.9334 c -0.3185,0 -0.5454,0.061 -0.6796,0.1832 -0.1415,0.1164 -0.2122,0.3058 -0.2122,0.5688 v 2.672 c 0,0.2752 0.0707,0.471 0.2122,0.5932 0.1342,0.116 0.3611,0.1771 0.6796,0.1771 h 5.8494 c 0.3185,0 0.5526,-0.0611 0.6868,-0.1771 0.1415,-0.1222 0.205,-0.318 0.205,-0.5932 z"
         style="fill:#ffffff;fill-rule:evenodd"
         id="path465"
         inkscape:connector-curvature="0" />
      <path
         d="m 214.5709,480.2138 h -5.8279 c -0.3188,0 -0.5454,-0.0611 -0.6872,-0.1771 -0.1414,-0.1225 -0.205,-0.318 -0.205,-0.5932 v -14.4916 c -1.766,0 -5.1275,0.2252 -5.1275,3.0301 v 11.0538 c 0,3.058 3.1526,4.9937 5.7253,4.9937 h 5.5888 1.0254 c 0.1421,0 0.2857,-0.006 0.4297,-0.0183 l 1.7904,-0.0222 h 1.3779 c 2.6377,0 3.7604,-3.574 3.7604,-5.4517 h -1.831 v -10.513 c -0.4947,-2.856 -3.0854,-3.0724 -5.148,-3.0724 v 14.4916 c 0,0.1771 -0.0287,0.3241 -0.0854,0.4401 -0.0496,0.1103 -0.1486,0.1959 -0.2757,0.2508 -0.135,0.055 -0.3048,0.0794 -0.5102,0.0794 z"
         style="fill:#ffffff;fill-rule:evenodd"
         id="path467"
         inkscape:connector-curvature="0" />
    </g>
  </g>
</svg>
